<svg width="376" height="678" viewBox="0 0 376 678" fill="none" xmlns="http://www.w3.org/2000/svg">
<g filter="url(#filter0_ddd_203_2)">
<path d="M87 190.5H41.5L42 558H14.5L64.5 647.5L115.5 558H87.5C87.5 524.5 87.7656 455.521 87.8413 394.5C87.5 315 85 313.5 100 288C158.5 198 243 247.5 262 266.5C259.5 256.5 242.5 222 186 220.5C116.5 222.5 87 278 82.5 288C68 310.5 71 390 66 391C64 386.5 65 350.5 66 320.5C68.5 286 95 239.5 146.5 220.5C201.5 201.5 244.333 224.667 264.5 239C270 244 271 229 273 220.5C184 159.5 115.5 210 88 230C85 233.375 87 190.5 87 190.5Z" fill="#006B83"/>
<path d="M247.5 445C187.5 479.5 124.5 444.5 124.5 444.5C163.5 491 254.5 476.5 296.5 417.5C296.5 417.5 316.5 391.5 322.5 355.5C325.5 314.5 319 253.5 319 253.5C319 253.5 317.5 239.5 314.5 229.5C309.85 214 314.5 289 309.694 356.5C308.876 361.558 307.932 366.572 306.845 371.5C304.179 379.659 300.916 387.558 296.943 395C286.153 415.215 270.352 432.939 247.5 445Z" fill="#006B83"/>
</g>
<g filter="url(#filter1_ddd_203_2)">
<circle cx="169" cy="319" r="25" fill="#006B83"/>
</g>
<defs>
<filter id="filter0_ddd_203_2" x="10.5" y="190.5" width="316.791" height="465" filterUnits="userSpaceOnUse" color-interpolation-filters="sRGB">
<feFlood flood-opacity="0" result="BackgroundImageFix"/>
<feColorMatrix in="SourceAlpha" type="matrix" values="0 0 0 0 0 0 0 0 0 0 0 0 0 0 0 0 0 0 127 0" result="hardAlpha"/>
<feOffset dy="4"/>
<feGaussianBlur stdDeviation="2"/>
<feComposite in2="hardAlpha" operator="out"/>
<feColorMatrix type="matrix" values="0 0 0 0 0 0 0 0 0 0 0 0 0 0 0 0 0 0 0.25 0"/>
<feBlend mode="normal" in2="BackgroundImageFix" result="effect1_dropShadow_203_2"/>
<feColorMatrix in="SourceAlpha" type="matrix" values="0 0 0 0 0 0 0 0 0 0 0 0 0 0 0 0 0 0 127 0" result="hardAlpha"/>
<feOffset dy="4"/>
<feGaussianBlur stdDeviation="2"/>
<feComposite in2="hardAlpha" operator="out"/>
<feColorMatrix type="matrix" values="0 0 0 0 0 0 0 0 0 0 0 0 0 0 0 0 0 0 0.25 0"/>
<feBlend mode="normal" in2="effect1_dropShadow_203_2" result="effect2_dropShadow_203_2"/>
<feColorMatrix in="SourceAlpha" type="matrix" values="0 0 0 0 0 0 0 0 0 0 0 0 0 0 0 0 0 0 127 0" result="hardAlpha"/>
<feOffset dy="4"/>
<feGaussianBlur stdDeviation="2"/>
<feComposite in2="hardAlpha" operator="out"/>
<feColorMatrix type="matrix" values="0 0 0 0 0 0 0 0 0 0 0 0 0 0 0 0 0 0 0.25 0"/>
<feBlend mode="normal" in2="effect2_dropShadow_203_2" result="effect3_dropShadow_203_2"/>
<feBlend mode="normal" in="SourceGraphic" in2="effect3_dropShadow_203_2" result="shape"/>
</filter>
<filter id="filter1_ddd_203_2" x="140" y="294" width="58" height="58" filterUnits="userSpaceOnUse" color-interpolation-filters="sRGB">
<feFlood flood-opacity="0" result="BackgroundImageFix"/>
<feColorMatrix in="SourceAlpha" type="matrix" values="0 0 0 0 0 0 0 0 0 0 0 0 0 0 0 0 0 0 127 0" result="hardAlpha"/>
<feOffset dy="4"/>
<feGaussianBlur stdDeviation="2"/>
<feComposite in2="hardAlpha" operator="out"/>
<feColorMatrix type="matrix" values="0 0 0 0 0 0 0 0 0 0 0 0 0 0 0 0 0 0 0.25 0"/>
<feBlend mode="normal" in2="BackgroundImageFix" result="effect1_dropShadow_203_2"/>
<feColorMatrix in="SourceAlpha" type="matrix" values="0 0 0 0 0 0 0 0 0 0 0 0 0 0 0 0 0 0 127 0" result="hardAlpha"/>
<feOffset dy="4"/>
<feGaussianBlur stdDeviation="2"/>
<feComposite in2="hardAlpha" operator="out"/>
<feColorMatrix type="matrix" values="0 0 0 0 0 0 0 0 0 0 0 0 0 0 0 0 0 0 0.25 0"/>
<feBlend mode="normal" in2="effect1_dropShadow_203_2" result="effect2_dropShadow_203_2"/>
<feColorMatrix in="SourceAlpha" type="matrix" values="0 0 0 0 0 0 0 0 0 0 0 0 0 0 0 0 0 0 127 0" result="hardAlpha"/>
<feOffset dy="4"/>
<feGaussianBlur stdDeviation="2"/>
<feComposite in2="hardAlpha" operator="out"/>
<feColorMatrix type="matrix" values="0 0 0 0 0 0 0 0 0 0 0 0 0 0 0 0 0 0 0.25 0"/>
<feBlend mode="normal" in2="effect2_dropShadow_203_2" result="effect3_dropShadow_203_2"/>
<feBlend mode="normal" in="SourceGraphic" in2="effect3_dropShadow_203_2" result="shape"/>
</filter>
</defs>
</svg>
